<?xml version="1.0" encoding="UTF-8"?>
<!DOCTYPE svg PUBLIC "-//W3C//DTD SVG 1.1//EN" "http://www.w3.org/Graphics/SVG/1.1/DTD/svg11.dtd">
<!-- Creator: CorelDRAW X7 -->
<svg xmlns="http://www.w3.org/2000/svg" xml:space="preserve" width="210.076mm" height="157.576mm" version="1.1" style="shape-rendering:geometricPrecision; text-rendering:geometricPrecision; image-rendering:optimizeQuality; fill-rule:evenodd; clip-rule:evenodd"
viewBox="0 0 19994 14997"
 xmlns:xlink="http://www.w3.org/1999/xlink">
 <defs>
  <style type="text/css">
   <![CDATA[
    .str0 {stroke:#201E1E;stroke-width:7.25241}
    .fil0 {fill:#FEFEFE}
   ]]>
  </style>
 </defs>
 <g id="Capa_x0020_1">
  <metadata id="CorelCorpID_0Corel-Layer"/>
  <path class="fil0 str0" d="M18117 4c1034,0 1874,839 1874,1873 0,590 -278,1144 -750,1499l-8494 6371c-445,332 -1054,332 -1499,0l-8495 -6371c-472,-355 -749,-909 -749,-1499 0,-1034 839,-1873 1873,-1873l16240 0zm-9619 10743c890,667 2108,667 2998,0l8495 -6371 0 8119c0,1378 -1121,2499 -2499,2499l-14990 0c-1380,0 -2498,-1121 -2498,-2499l0 -8119 8494 6371z"/>
 </g>
</svg>
