<?xml version="1.0" encoding="UTF-8"?>
<!DOCTYPE svg PUBLIC "-//W3C//DTD SVG 1.1//EN" "http://www.w3.org/Graphics/SVG/1.1/DTD/svg11.dtd">
<!-- Creator: CorelDRAW X7 -->
<svg xmlns="http://www.w3.org/2000/svg" xml:space="preserve" width="210.076mm" height="204.829mm" version="1.1" style="shape-rendering:geometricPrecision; text-rendering:geometricPrecision; image-rendering:optimizeQuality; fill-rule:evenodd; clip-rule:evenodd"
viewBox="0 0 22926 22353"
 xmlns:xlink="http://www.w3.org/1999/xlink">
 <defs>
  <style type="text/css">
   <![CDATA[
    .str0 {stroke:#373435;stroke-width:8.31567}
    .fil0 {fill:#FEFEFE}
   ]]>
  </style>
 </defs>
 <g id="Capa_x0020_1">
  <metadata id="CorelCorpID_0Corel-Layer"/>
  <path class="fil0 str0" d="M7669 17996c0,92 -106,166 -240,166 -152,14 -259,-60 -259,-166 0,-92 107,-166 241,-166 138,-14 258,60 258,166zm-1437 -208c-32,92 61,199 199,226 120,47 259,0 287,-92 27,-92 -60,-199 -199,-240 -120,-33 -254,14 -287,106zm2043 -78c-134,32 -227,120 -213,226 14,92 134,152 273,120 134,-32 226,-120 212,-212 -14,-88 -138,-148 -272,-134zm3040 -17706c-6409,0 -11311,4865 -11311,11274 0,5124 3225,9509 7832,11052 591,106 799,-259 799,-559 0,-287 -14,-1867 -14,-2837 0,0 -3234,693 -3913,-1377 0,0 -527,-1344 -1285,-1691 0,0 -1058,-725 74,-712 0,0 1151,93 1784,1193 1012,1783 2707,1270 3368,965 106,-739 407,-1252 739,-1557 -2583,-286 -5189,-661 -5189,-5105 0,-1271 352,-1909 1091,-2722 -120,-300 -513,-1538 120,-3137 966,-300 3188,1247 3188,1247 924,-258 1918,-392 2902,-392 984,0 1977,134 2901,392 0,0 2223,-1552 3188,-1247 633,1603 241,2837 121,3137 739,818 1192,1456 1192,2722 0,4458 -2722,4814 -5305,5105 425,365 786,1058 786,2144 0,1557 -14,3484 -14,3863 0,300 213,665 799,559 4621,-1534 7753,-5919 7753,-11043 0,-6409 -5198,-11274 -11606,-11274zm-6820 15936c-60,46 -46,152 33,240 73,74 180,106 240,46 60,-46 46,-152 -33,-240 -73,-74 -180,-106 -240,-46zm-499 -374c-32,60 14,134 106,180 74,46 167,32 199,-32 32,-61 -14,-134 -106,-181 -93,-27 -166,-14 -199,33zm1497 1645c-74,60 -46,198 60,286 107,106 241,120 301,46 60,-60 32,-198 -60,-286 -102,-107 -241,-120 -301,-46zm-527 -680c-73,47 -73,167 0,273 74,106 199,152 259,106 74,-60 74,-180 0,-286 -64,-107 -185,-153 -259,-93z"/>
 </g>
</svg>
